<?xml version="1.0" encoding="UTF-8"?>
<svg id="Layer_2" data-name="Layer 2" xmlns="http://www.w3.org/2000/svg" viewBox="0 0 211.5 105.53">
  <defs>
    <style>
      .cls-1 {
        fill: none;
        stroke: #3b2000;
        stroke-miterlimit: 10;
        stroke-width: 2px;
      }
    </style>
  </defs>
  <g id="Layer_2-2" data-name="Layer 2">
    <g>
      <path class="cls-1" d="m55.31,103.27c-18.73-.15-42.7-10.83-51.06-33.94C-4.84,44.18,6.41,20.47,22.22,10.05,31.33,4.04,40.93,1,50.76,1c22.54,0,39.2,15.53,44.86,23.74,1.05,1.52,5.96,9.35-.53,14.03-.17.12-.34.23-.52.34l-40.61,24.58c-1.21.73-2.58,1.12-3.99,1.12-2.73,0-5.19-1.39-6.6-3.72-1.07-1.76-1.38-3.83-.89-5.84.49-2,1.73-3.69,3.5-4.76l33.97-20.56c-3.11-3.21-10.06-9.37-19.86-12.17-3.09-.88-6.22-1.33-9.28-1.33-6.79,0-13.55,2.18-20.09,6.49-14.08,9.28-16.66,28.13-11.95,41.16,5.85,16.18,23.08,23.66,36.62,23.76,21.52,0,32.19-17.75,44.55-38.29,6.58-10.94,13.38-22.24,22.42-31.93,9.91-10.62,23.15-16.46,37.29-16.46,4.01,0,8.05.48,12.01,1.43,18.69,4.48,33.11,18.46,38.55,37.39.57,1.98.33,4.06-.66,5.87-1,1.8-2.64,3.11-4.62,3.68-.7.2-1.42.3-2.13.3-3.42,0-6.46-2.3-7.41-5.58-3.89-13.52-14.11-23.49-27.33-26.66-2.75-.66-5.56-.99-8.34-.99-9.87,0-19.13,4.1-26.08,11.55-7.93,8.5-14.31,19.1-20.47,29.35-13.53,22.5-27.52,45.76-57.83,45.76h0Z"/>
      <path class="cls-1" d="m162.45,104.53c-21.46,0-40.28-13.81-49.12-36.04-.76-1.91-.73-4.01.09-5.9.82-1.89,2.32-3.35,4.23-4.11.91-.36,1.87-.55,2.84-.55,3.18,0,6,1.91,7.17,4.87,5.05,12.72,16.88,26.31,34.9,26.31.27,0,.54,0,.81-.01,14.53-.38,26.83-10.31,32.1-25.92,1.06-3.14,3.99-5.25,7.3-5.25.84,0,1.67.14,2.47.41,1.95.66,3.53,2.04,4.44,3.88s1.05,3.94.39,5.89c-7.39,21.9-25.14,35.85-46.31,36.4-.44.01-.89.02-1.33.02Z"/>
    </g>
  </g>
</svg>